<svg width="18" height="18" viewBox="0 0 18 18" fill="none" xmlns="http://www.w3.org/2000/svg">
<path d="M13.57 17H4.43C4.2376 16.9955 4.04797 16.953 3.87197 16.8752C3.69596 16.7973 3.53701 16.6856 3.40422 16.5463C3.27142 16.407 3.16737 16.2429 3.09801 16.0634C3.02865 15.8838 2.99535 15.6924 3 15.5V5.615H4V15.5C3.99523 15.5611 4.00258 15.6225 4.02163 15.6808C4.04069 15.739 4.07107 15.7929 4.11103 15.8394C4.15099 15.8859 4.19975 15.924 4.25449 15.9515C4.30923 15.9791 4.36887 15.9956 4.43 16H13.57C13.6311 15.9956 13.6908 15.9791 13.7455 15.9515C13.8003 15.924 13.849 15.8859 13.889 15.8394C13.9289 15.7929 13.9593 15.739 13.9784 15.6808C13.9974 15.6225 14.0048 15.5611 14 15.5V5.615H15V15.5C15.0047 15.6924 14.9713 15.8838 14.902 16.0634C14.8326 16.2429 14.7286 16.407 14.5958 16.5463C14.463 16.6856 14.304 16.7973 14.128 16.8752C13.952 16.953 13.7624 16.9955 13.57 17Z" fill="black"/>
<path d="M15.39 4.5H2.5C2.36739 4.5 2.24021 4.44732 2.14645 4.35355C2.05268 4.25979 2 4.13261 2 4C2 3.86739 2.05268 3.74021 2.14645 3.64645C2.24021 3.55268 2.36739 3.5 2.5 3.5H15.39C15.5226 3.5 15.6498 3.55268 15.7436 3.64645C15.8373 3.74021 15.89 3.86739 15.89 4C15.89 4.13261 15.8373 4.25979 15.7436 4.35355C15.6498 4.44732 15.5226 4.5 15.39 4.5Z" fill="black"/>
<path d="M10.5 6.5H11.5V14H10.5V6.5Z" fill="black"/>
<path d="M6.5 6.5H7.5V14H6.5V6.5Z" fill="black"/>
<path d="M11.5 2.93H10.55V2H7.45V2.93H6.5V2C6.49968 1.74322 6.59815 1.49616 6.775 1.31C6.95186 1.12384 7.19354 1.01284 7.45 1H10.55C10.8065 1.01284 11.0481 1.12384 11.225 1.31C11.4019 1.49616 11.5003 1.74322 11.5 2V2.93Z" fill="black"/>
</svg>
